# xmcd
#
# Track frame offsets: 
#        150
#        11895
#        23505
#        36552
#        49182
#        60137
#        73132
#        86307
#        100060
#        113987
#        126017
#        137882
#        150640
#        161592
#        174732
#        187630
#        200312
#        213835
#        226590
#        238310
#        249587
#        263910
#
# Disc length: 3669 seconds
#
# Revision: 0
# Processed by: cddbd v1.5.2PL0 Copyright (c) Steve Scherf et al.
# Submitted via: ExactAudioCopy v0.99pb1
#
DISCID=230e5316
DTITLE=Rosetta Tharpe - Up Above My Head
DYEAR=1900
DGENRE=Gospel
TTITLE0=Rock Me
TTITLE1=That's All
TTITLE2=I Looked Down The Line (And I Wondered)
TTITLE3=Saviour Don't Pass Me By
TTITLE4=There's Something Within Me
TTITLE5=Stand By Me
TTITLE6=Rock Daniel
TTITLE7=Precious Lord, Hold My Hand
TTITLE8=Nobody's Fault But Mine
TTITLE9=I Want Jesus To Walk Around My Bedside
TTITLE10=All Over This World
TTITLE11=Strange Things Happen Every Day
TTITLE12=Don't Take Everybody To Be Your Friend
TTITLE13=How Far From God
TTITLE14=When I Move To The Sky
TTITLE15=Jesus Is Here Today
TTITLE16=Jonah
TTITLE17=This Train
TTITLE18=Didn't It Rain
TTITLE19=Up Above My Head, I Hear Music In The Air
TTITLE20=My Journey To The Sky
TTITLE21=Down By The Riverside
EXTD=
EXTT0=
EXTT1=
EXTT2=
EXTT3=
EXTT4=
EXTT5=
EXTT6=
EXTT7=
EXTT8=
EXTT9=
EXTT10=
EXTT11=
EXTT12=
EXTT13=
EXTT14=
EXTT15=
EXTT16=
EXTT17=
EXTT18=
EXTT19=
EXTT20=
EXTT21=
PLAYORDER=
